<svg width="192" height="40" viewBox="0 0 192 40" fill="none" xmlns="http://www.w3.org/2000/svg">
<path d="M44.96 25V13.8H47.344L51.712 21.008V13.8H53.92V25H51.536L47.168 17.792V25H44.96ZM55.835 25V13.8H62.475V16.008H58.043V17.896H61.707V20.104H58.043V25H55.835ZM72.0806 13.8V16.008H68.7846V25H66.5766V16.008H63.2806V13.8H72.0806ZM82.7065 25.208C81.9492 25.208 81.2372 25.0587 80.5705 24.76C79.9038 24.456 79.3172 24.0373 78.8105 23.504C78.3092 22.9707 77.9145 22.3547 77.6265 21.656C77.3438 20.952 77.2025 20.2 77.2025 19.4C77.2025 18.5947 77.3438 17.8427 77.6265 17.144C77.9145 16.44 78.3092 15.824 78.8105 15.296C79.3172 14.7627 79.9038 14.3467 80.5705 14.048C81.2372 13.744 81.9492 13.592 82.7065 13.592C83.6132 13.592 84.4478 13.8027 85.2105 14.224C85.9732 14.6453 86.6052 15.2027 87.1065 15.896L85.1385 16.96C84.8398 16.608 84.4798 16.328 84.0585 16.12C83.6372 15.9067 83.1865 15.8 82.7065 15.8C82.0985 15.8 81.5438 15.9627 81.0425 16.288C80.5465 16.6133 80.1492 17.048 79.8505 17.592C79.5572 18.136 79.4105 18.7387 79.4105 19.4C79.4105 20.0613 79.5572 20.664 79.8505 21.208C80.1492 21.752 80.5465 22.1867 81.0425 22.512C81.5438 22.8373 82.0985 23 82.7065 23C83.1918 23 83.6425 22.896 84.0585 22.688C84.4798 22.4747 84.8398 22.1893 85.1385 21.832L87.1065 22.904C86.6052 23.6027 85.9732 24.1627 85.2105 24.584C84.4478 25 83.6132 25.208 82.7065 25.208ZM93.7069 25.208C92.9495 25.208 92.2375 25.0587 91.5709 24.76C90.9042 24.456 90.3175 24.0373 89.8109 23.504C89.3042 22.9707 88.9069 22.3547 88.6189 21.656C88.3309 20.952 88.1869 20.2 88.1869 19.4C88.1869 18.6 88.3309 17.8507 88.6189 17.152C88.9069 16.448 89.3042 15.8293 89.8109 15.296C90.3175 14.7627 90.9042 14.3467 91.5709 14.048C92.2375 13.744 92.9495 13.592 93.7069 13.592C94.4695 13.592 95.1842 13.744 95.8509 14.048C96.5175 14.3467 97.1042 14.7627 97.6109 15.296C98.1175 15.8293 98.5122 16.448 98.7949 17.152C99.0829 17.8507 99.2269 18.6 99.2269 19.4C99.2269 20.2 99.0829 20.952 98.7949 21.656C98.5122 22.3547 98.1175 22.9707 97.6109 23.504C97.1042 24.0373 96.5175 24.456 95.8509 24.76C95.1842 25.0587 94.4695 25.208 93.7069 25.208ZM93.7069 23C94.3149 23 94.8695 22.8373 95.3709 22.512C95.8722 22.1867 96.2722 21.752 96.5709 21.208C96.8695 20.6587 97.0189 20.056 97.0189 19.4C97.0189 18.7387 96.8695 18.136 96.5709 17.592C96.2722 17.048 95.8722 16.6133 95.3709 16.288C94.8695 15.9627 94.3149 15.8 93.7069 15.8C93.0989 15.8 92.5442 15.9627 92.0429 16.288C91.5415 16.6133 91.1415 17.0507 90.8429 17.6C90.5442 18.144 90.3949 18.744 90.3949 19.4C90.3949 20.0613 90.5442 20.664 90.8429 21.208C91.1415 21.752 91.5415 22.1867 92.0429 22.512C92.5442 22.8373 93.0989 23 93.7069 23ZM100.616 25V13.8H103L107.368 21.008V13.8H109.576V25H107.192L102.824 17.792V25H100.616ZM115.563 25.208C114.934 25.208 114.331 25.1093 113.755 24.912C113.185 24.7147 112.683 24.4293 112.251 24.056C111.825 23.6827 111.518 23.24 111.331 22.728L113.403 21.96C113.499 22.232 113.747 22.4747 114.147 22.688C114.547 22.896 115.019 23 115.563 23C115.91 23 116.235 22.9493 116.539 22.848C116.849 22.7413 117.097 22.5947 117.283 22.408C117.475 22.2213 117.571 22.0027 117.571 21.752C117.571 21.5013 117.47 21.2933 117.267 21.128C117.07 20.9573 116.817 20.824 116.507 20.728C116.203 20.632 115.889 20.5573 115.563 20.504C114.758 20.3867 114.035 20.1973 113.395 19.936C112.761 19.6693 112.259 19.304 111.891 18.84C111.523 18.3707 111.339 17.776 111.339 17.056C111.339 16.3627 111.534 15.7573 111.923 15.24C112.318 14.7227 112.835 14.32 113.475 14.032C114.121 13.744 114.817 13.6 115.563 13.6C116.182 13.6 116.779 13.6987 117.355 13.896C117.931 14.0933 118.433 14.3787 118.859 14.752C119.291 15.1253 119.601 15.5733 119.787 16.096L117.715 16.848C117.619 16.576 117.371 16.3387 116.971 16.136C116.571 15.928 116.102 15.824 115.563 15.824C115.222 15.8187 114.897 15.8693 114.587 15.976C114.283 16.0827 114.033 16.2293 113.835 16.416C113.643 16.6027 113.547 16.816 113.547 17.056C113.547 17.3707 113.638 17.608 113.819 17.768C114.001 17.9227 114.243 18.0373 114.547 18.112C114.857 18.1813 115.195 18.2427 115.563 18.296C116.321 18.408 117.019 18.608 117.659 18.896C118.299 19.1787 118.811 19.5573 119.195 20.032C119.585 20.5013 119.779 21.0747 119.779 21.752C119.779 22.4453 119.585 23.0507 119.195 23.568C118.811 24.0853 118.297 24.488 117.651 24.776C117.011 25.064 116.315 25.208 115.563 25.208ZM129.69 13.8V16.008H126.394V25H124.186V16.008H120.89V13.8H129.69ZM131.288 25V13.8H135.736C136.344 13.8 136.893 13.9547 137.384 14.264C137.88 14.568 138.272 14.9787 138.56 15.496C138.853 16.008 139 16.576 139 17.2C139 17.936 138.811 18.5867 138.432 19.152C138.059 19.7173 137.563 20.1333 136.944 20.4L139.608 25H137.064L134.512 20.6H133.496V25H131.288ZM133.496 18.392H135.472C135.835 18.392 136.144 18.2613 136.4 18C136.661 17.7333 136.792 17.4133 136.792 17.04C136.792 16.6667 136.661 16.3493 136.4 16.088C136.144 15.8213 135.835 15.688 135.472 15.688H133.496V18.392ZM145.754 25.208C144.858 25.208 144.068 24.9893 143.386 24.552C142.708 24.1147 142.178 23.528 141.794 22.792C141.415 22.0507 141.226 21.2293 141.226 20.328V13.8H143.434V20.328C143.434 20.8187 143.524 21.2667 143.706 21.672C143.892 22.072 144.156 22.3947 144.498 22.64C144.844 22.88 145.263 23 145.754 23C146.25 23 146.668 22.88 147.01 22.64C147.351 22.4 147.61 22.0773 147.786 21.672C147.967 21.2667 148.058 20.8187 148.058 20.328V13.8H150.266V20.328C150.266 21.2293 150.076 22.0507 149.698 22.792C149.319 23.528 148.791 24.1147 148.114 24.552C147.436 24.9893 146.65 25.208 145.754 25.208ZM157.363 25.208C156.605 25.208 155.893 25.0587 155.227 24.76C154.56 24.456 153.973 24.0373 153.467 23.504C152.965 22.9707 152.571 22.3547 152.283 21.656C152 20.952 151.859 20.2 151.859 19.4C151.859 18.5947 152 17.8427 152.283 17.144C152.571 16.44 152.965 15.824 153.467 15.296C153.973 14.7627 154.56 14.3467 155.227 14.048C155.893 13.744 156.605 13.592 157.363 13.592C158.269 13.592 159.104 13.8027 159.867 14.224C160.629 14.6453 161.261 15.2027 161.763 15.896L159.795 16.96C159.496 16.608 159.136 16.328 158.715 16.12C158.293 15.9067 157.843 15.8 157.363 15.8C156.755 15.8 156.2 15.9627 155.699 16.288C155.203 16.6133 154.805 17.048 154.507 17.592C154.213 18.136 154.067 18.7387 154.067 19.4C154.067 20.0613 154.213 20.664 154.507 21.208C154.805 21.752 155.203 22.1867 155.699 22.512C156.2 22.8373 156.755 23 157.363 23C157.848 23 158.299 22.896 158.715 22.688C159.136 22.4747 159.496 22.1893 159.795 21.832L161.763 22.904C161.261 23.6027 160.629 24.1627 159.867 24.584C159.104 25 158.269 25.208 157.363 25.208ZM171.768 13.8V16.008H168.472V25H166.264V16.008H162.968V13.8H171.768ZM173.366 25V13.8H180.454V16.008H175.574V17.896H179.382V20.104H175.574V22.792H180.454V25H173.366ZM182.226 25V13.8H186.674C187.282 13.8 187.831 13.9547 188.322 14.264C188.818 14.568 189.21 14.9787 189.498 15.496C189.791 16.008 189.938 16.576 189.938 17.2C189.938 17.936 189.748 18.5867 189.37 19.152C188.996 19.7173 188.5 20.1333 187.882 20.4L190.546 25H188.002L185.45 20.6H184.434V25H182.226ZM184.434 18.392H186.41C186.772 18.392 187.082 18.2613 187.338 18C187.599 17.7333 187.73 17.4133 187.73 17.04C187.73 16.6667 187.599 16.3493 187.338 16.088C187.082 15.8213 186.772 15.688 186.41 15.688H184.434V18.392Z" fill="#323232"/>
<path d="M28.9463 31.9254L29.0883 32.0411L29.0936 32.0358C29.041 32.0043 28.9937 31.9675 28.9463 31.9254ZM1.10307 10.2052L1.08203 10.1895V10.2421L1.11885 10.221L1.10307 10.2052Z" fill="#6E58EB"/>
<path d="M29.0151 6.34403L17.9157 0L6.81101 6.34929V6.32299L5.922 6.83325L5.85888 6.87007L1.18765 9.41084L0.777342 9.64755L0.398594 9.87375V11.4466L0.382812 29.9579L5.5906 32.9563L6.56377 33.5087L6.81627 33.6507L17.9262 40L29.6306 33.3193L29.6621 33.3403L35.296 30.0842V9.83167L29.0151 6.34403ZM1.08244 10.242V10.1894L1.10349 10.2052L1.11927 10.2209L1.08244 10.242ZM17.9157 1.58864L29.0204 7.93267V11.8832L17.9893 5.58127L10.2881 9.97896V10.2367L7.10559 7.75381L17.9157 1.58864ZM29.0151 13.4666V24.829L11.6663 11.3098V10.7785L17.9893 7.16465L29.0151 13.4666ZM17.9315 38.4166L6.72684 32.0147V21.5623L6.7321 15.4866L10.2934 18.2641V29.9842L17.9315 34.3503L25.438 30.0579L28.447 32.404L17.9315 38.4166ZM11.6663 29.1899V19.3319L24.265 29.1531L17.9315 32.767L11.6663 29.1899ZM29.0835 32.0463L28.9415 31.9306C28.9941 31.9674 29.0414 32.0042 29.0835 32.0463ZM33.9178 29.2898L29.7568 31.6938L11.6663 17.596L10.9772 17.0594L10.2881 16.5229L6.72158 13.7454L6.03247 13.2088L5.34862 12.6775V18.8585L5.34336 31.2309L1.76103 29.1689L1.77156 10.6681L5.35388 8.60074L5.69581 8.4061L6.04299 8.67964L6.7321 9.2162L10.2986 11.9937L10.9878 12.525L11.6769 13.0615L30.4039 27.6539V8.59548L33.9283 10.6312V29.2898H33.9178Z" fill="#6E58EB"/>
</svg>
