<svg width="34" height="34" viewBox="0 0 34 34" fill="none" xmlns="http://www.w3.org/2000/svg">
<path d="M16.3142 2.8503C8.7917 3.20447 2.85728 9.42364 2.87995 16.8994C2.88367 19.0999 3.41052 21.268 4.41703 23.2248L2.9182 30.4512C2.89991 30.5416 2.9047 30.6351 2.93212 30.7231C2.95954 30.8111 3.00871 30.8908 3.07508 30.9547C3.14145 31.0187 3.22288 31.0649 3.31184 31.0891C3.4008 31.1132 3.49442 31.1146 3.58403 31.093L10.7155 29.4156C12.6043 30.349 14.6779 30.8485 16.7845 30.8776C24.4728 30.9952 30.8818 24.9347 31.1212 17.306C31.379 9.12472 24.5804 2.45789 16.3142 2.84889V2.8503ZM24.8241 24.6202C23.7963 25.6444 22.5765 26.4556 21.2346 27.0074C19.8927 27.5593 18.4551 27.8409 17.0041 27.8361C15.297 27.8413 13.6122 27.4494 12.0826 26.6914L11.0895 26.1998L6.71628 27.2283L7.63711 22.7927L7.14695 21.8407C6.35234 20.3004 5.94028 18.5915 5.94561 16.8583C5.94561 13.9258 7.09595 11.1676 9.18411 9.09497C11.2655 7.03471 14.0755 5.87863 17.0041 5.87772C19.9593 5.87772 22.7359 7.01955 24.8241 9.09355C25.8529 10.1074 26.6693 11.3161 27.2256 12.6491C27.7819 13.982 28.0669 15.4125 28.064 16.8569C28.064 19.7639 26.8953 22.5661 24.8241 24.6216V24.6202Z" fill="#6C54EA"/>
<path d="M23.8597 19.897L21.1241 19.1178C20.9476 19.0672 20.7607 19.0649 20.583 19.1112C20.4053 19.1576 20.2433 19.2509 20.114 19.3813L19.4454 20.0585C19.307 20.1986 19.1304 20.2949 18.9377 20.3352C18.7449 20.3755 18.5446 20.3581 18.3616 20.2852C17.0682 19.7652 14.3454 17.3626 13.6498 16.1598C13.5523 15.99 13.5077 15.7948 13.5219 15.5995C13.536 15.4041 13.6082 15.2174 13.7291 15.0633L14.3128 14.3125C14.4252 14.1686 14.4963 13.9969 14.5185 13.8157C14.5407 13.6345 14.5132 13.4507 14.4389 13.284L13.2885 10.7C13.2235 10.5556 13.1258 10.4282 13.0032 10.3279C12.8806 10.2276 12.7364 10.1571 12.5819 10.122C12.4275 10.0868 12.267 10.088 12.1131 10.1253C11.9591 10.1627 11.8159 10.2353 11.6948 10.3373C10.9312 10.9791 10.0245 11.9523 9.91547 13.0332C9.72138 14.9358 10.543 17.3342 13.6512 20.2157C17.2425 23.5435 20.1197 23.9841 21.9911 23.5322C23.0536 23.2772 23.9036 22.2529 24.4377 21.4157C24.5231 21.2827 24.5761 21.1315 24.5925 20.9743C24.6088 20.8171 24.5881 20.6582 24.5319 20.5105C24.4756 20.3628 24.3855 20.2303 24.2688 20.1238C24.1521 20.0172 24.0119 19.9395 23.8597 19.897Z" fill="#6C54EA"/>
</svg>
