<svg width="12" height="12" viewBox="0 0 12 12" fill="none" xmlns="http://www.w3.org/2000/svg">
<path d="M5.53516 0.615234L5.02734 1.09766C4.90039 1.22461 4.90039 1.42773 5.02734 1.5293L8.96289 5.46484H0.304688C0.126953 5.46484 0 5.61719 0 5.76953V6.48047C0 6.6582 0.126953 6.78516 0.304688 6.78516H8.96289L5.02734 10.7461C4.90039 10.8477 4.90039 11.0508 5.02734 11.1777L5.53516 11.6602C5.63672 11.7871 5.83984 11.7871 5.9668 11.6602L11.2734 6.35352C11.4004 6.22656 11.4004 6.04883 11.2734 5.92188L5.9668 0.615234C5.83984 0.488281 5.63672 0.488281 5.53516 0.615234Z" fill="#616161"/>
</svg>
