<svg width="20" height="12" viewBox="0 0 20 12" fill="none" xmlns="http://www.w3.org/2000/svg">
<path d="M12.0625 5.15625H6.375V7.21875H9.78125C9.65625 8.09375 8.75 9.8125 6.375 9.8125C4.34375 9.8125 2.65625 8.125 2.65625 6C2.65625 3.90625 4.34375 2.21875 6.375 2.21875C7.5625 2.21875 8.34375 2.71875 8.78125 3.15625L10.4062 1.59375C9.34375 0.59375 8 0 6.375 0C3.0625 0 0.375 2.6875 0.375 6C0.375 9.34375 3.0625 12 6.375 12C9.84375 12 12.1562 9.59375 12.1562 6.15625C12.1562 5.75 12.0938 5.46875 12.0625 5.15625ZM17.8438 5.34375V3.625H16.0938V5.34375H14.3438V7.09375H16.0938V8.84375H17.8438V7.09375H19.5938V5.34375H17.8438Z" fill="#14161B"/>
</svg>
