<svg width="63" height="63" viewBox="0 0 63 63" fill="none" xmlns="http://www.w3.org/2000/svg">
<path d="M31.0615 62.123C48.2163 62.123 62.123 48.2163 62.123 31.0615C62.123 13.9067 48.2163 0 31.0615 0C13.9067 0 0 13.9067 0 31.0615C0 48.2163 13.9067 62.123 31.0615 62.123Z" fill="white"/>
<path d="M30.6731 52.0278C42.4669 52.0278 52.0278 42.4669 52.0278 30.6731C52.0278 18.8792 42.4669 9.31836 30.6731 9.31836C18.8792 9.31836 9.31836 18.8792 9.31836 30.6731C9.31836 42.4669 18.8792 52.0278 30.6731 52.0278Z" fill="#6C54EA"/>
<path d="M31.0621 41.1563C30.8368 41.1563 30.6461 41.0805 30.4901 40.9288L22.3781 33.3202C22.2914 33.2528 22.1722 33.1432 22.0206 32.9916C21.8689 32.8399 21.6284 32.564 21.2991 32.1637C20.9697 31.7635 20.6751 31.3527 20.4151 30.9314C20.1551 30.5101 19.9232 30.0004 19.7196 29.4021C19.5159 28.8039 19.4141 28.2225 19.4141 27.6579C19.4141 25.8042 19.9644 24.355 21.0651 23.3101C22.1657 22.2653 23.6867 21.7429 25.6281 21.7429C26.1654 21.7429 26.7136 21.8335 27.2726 22.0147C27.8316 22.1958 28.3516 22.4402 28.8326 22.7477C29.3136 23.0553 29.7274 23.3439 30.0741 23.6135C30.4208 23.8831 30.7501 24.1696 31.0621 24.4729C31.3741 24.1696 31.7034 23.8831 32.0501 23.6135C32.3968 23.3439 32.8106 23.0553 33.2916 22.7477C33.7726 22.4402 34.2926 22.1958 34.8516 22.0147C35.4106 21.8335 35.9588 21.7429 36.4961 21.7429C38.4375 21.7429 39.9585 22.2653 41.0591 23.3101C42.1598 24.355 42.7102 25.8042 42.7102 27.6579C42.7102 29.5201 41.7178 31.4159 39.7331 33.3455L31.6341 40.9288C31.4781 41.0805 31.2874 41.1563 31.0621 41.1563Z" fill="white"/>
</svg>
