<svg width="161" height="44" viewBox="0 0 161 44" fill="none" xmlns="http://www.w3.org/2000/svg">
<path d="M1.57334 41.6666C1.9953 32.8821 -0.903544 7.907 10.4628 2.62031C12.9365 1.46978 16.0397 1.90263 17.2706 4.36445C21.9883 13.7999 24.6114 24.1548 27.9042 34.1274C28.2108 35.0558 29.1328 40.2037 30.8299 40.2037C35.9226 40.2037 42.2902 34.0321 45.5144 30.8079C48.345 27.9774 57.3324 11.8528 62.7308 13.9291C65.7098 15.0749 66.2376 17.4113 70.1012 17.3611C93.8624 17.0525 117.425 11.9519 141.273 11.3973C144.804 11.3152 154.782 9.79028 158.659 11.341C159.808 11.801 156.57 12.673 155.508 13.3102" stroke="#272727" stroke-width="3" stroke-linecap="round"/>
</svg>
