<svg width="12" height="12" viewBox="0 0 12 12" fill="none" xmlns="http://www.w3.org/2000/svg">
<path d="M2.53906 12V4.4082H0.177734V12H2.53906ZM1.3457 3.39258C2.10742 3.39258 2.7168 2.75781 2.7168 1.99609C2.7168 1.25977 2.10742 0.650391 1.3457 0.650391C0.609375 0.650391 0 1.25977 0 1.99609C0 2.75781 0.609375 3.39258 1.3457 3.39258ZM11.3496 12H11.375V7.83594C11.375 5.80469 10.918 4.23047 8.53125 4.23047C7.38867 4.23047 6.62695 4.86523 6.29688 5.44922H6.27148V4.4082H4.01172V12H6.37305V8.24219C6.37305 7.25195 6.55078 6.3125 7.76953 6.3125C8.98828 6.3125 9.01367 7.42969 9.01367 8.31836V12H11.3496Z" fill="white"/>
</svg>
