<svg width="19" height="19" viewBox="0 0 19 19" fill="none" xmlns="http://www.w3.org/2000/svg">
<path d="M17.8594 16.7383L13.6055 12.4844C13.5 12.4141 13.3945 12.3438 13.2891 12.3438H12.832C13.9219 11.0781 14.625 9.39062 14.625 7.5625C14.625 3.55469 11.3203 0.25 7.3125 0.25C3.26953 0.25 0 3.55469 0 7.5625C0 11.6055 3.26953 14.875 7.3125 14.875C9.14062 14.875 10.793 14.207 12.0938 13.1172V13.5742C12.0938 13.6797 12.1289 13.7852 12.1992 13.8906L16.4531 18.1445C16.6289 18.3203 16.9102 18.3203 17.0508 18.1445L17.8594 17.3359C18.0352 17.1953 18.0352 16.9141 17.8594 16.7383ZM7.3125 13.1875C4.18359 13.1875 1.6875 10.6914 1.6875 7.5625C1.6875 4.46875 4.18359 1.9375 7.3125 1.9375C10.4062 1.9375 12.9375 4.46875 12.9375 7.5625C12.9375 10.6914 10.4062 13.1875 7.3125 13.1875Z" fill="#14161B"/>
</svg>
