<svg width="24" height="22" viewBox="0 0 24 22" fill="none" xmlns="http://www.w3.org/2000/svg">
<path d="M8.25 0.5H3C1.3125 0.5 0 1.85938 0 3.5V9.5C0 11.1875 1.3125 12.5 3 12.5H6V13.625C6 15.0781 4.78125 16.25 3.375 16.25H2.625C1.54688 16.25 0.75 17.0938 0.75 18.125V19.625C0.75 20.7031 1.54688 21.5 2.625 21.5H3.375C7.6875 21.5 11.25 17.9844 11.25 13.625V3.5C11.25 1.85938 9.89062 0.5 8.25 0.5ZM9.75 13.625C9.75 17.1875 6.89062 20 3.375 20H2.625C2.39062 20 2.25 19.8594 2.25 19.625V18.125C2.25 17.9375 2.39062 17.75 2.625 17.75H3.375C5.625 17.75 7.5 15.9219 7.5 13.625V11H3C2.15625 11 1.5 10.3438 1.5 9.5V3.5C1.5 2.70312 2.15625 2 3 2H8.25C9.04688 2 9.75 2.70312 9.75 3.5V13.625ZM21 0.5H15.75C14.0625 0.5 12.75 1.85938 12.75 3.5V9.5C12.75 11.1875 14.0625 12.5 15.75 12.5H18.75V13.625C18.75 15.0781 17.5312 16.25 16.125 16.25H15.375C14.2969 16.25 13.5 17.0938 13.5 18.125V19.625C13.5 20.7031 14.2969 21.5 15.375 21.5H16.125C20.4375 21.5 24 17.9844 24 13.625V3.5C24 1.85938 22.6406 0.5 21 0.5ZM22.5 13.625C22.5 17.1875 19.6406 20 16.125 20H15.375C15.1406 20 15 19.8594 15 19.625V18.125C15 17.9375 15.1406 17.75 15.375 17.75H16.125C18.375 17.75 20.25 15.9219 20.25 13.625V11H15.75C14.9062 11 14.25 10.3438 14.25 9.5V3.5C14.25 2.70312 14.9062 2 15.75 2H21C21.7969 2 22.5 2.70312 22.5 3.5V13.625Z" fill="#6345ED"/>
</svg>
