<svg width="13" height="12" viewBox="0 0 13 12" fill="none" xmlns="http://www.w3.org/2000/svg">
<path d="M11.6543 3.48438C12.1621 3.10352 12.6191 2.64648 12.9746 2.11328C12.5176 2.31641 11.9844 2.46875 11.4512 2.51953C12.0098 2.18945 12.416 1.68164 12.6191 1.04688C12.1113 1.35156 11.5273 1.58008 10.9434 1.70703C10.4355 1.17383 9.75 0.869141 8.98828 0.869141C7.51562 0.869141 6.32227 2.0625 6.32227 3.53516C6.32227 3.73828 6.34766 3.94141 6.39844 4.14453C4.18945 4.01758 2.20898 2.95117 0.888672 1.35156C0.660156 1.73242 0.533203 2.18945 0.533203 2.69727C0.533203 3.61133 0.990234 4.42383 1.72656 4.90625C1.29492 4.88086 0.863281 4.7793 0.507812 4.57617V4.60156C0.507812 5.89648 1.42188 6.96289 2.64062 7.2168C2.4375 7.26758 2.18359 7.31836 1.95508 7.31836C1.77734 7.31836 1.625 7.29297 1.44727 7.26758C1.77734 8.33398 2.76758 9.0957 3.93555 9.12109C3.02148 9.83203 1.87891 10.2637 0.634766 10.2637C0.40625 10.2637 0.203125 10.2383 0 10.2129C1.16797 10.9746 2.56445 11.4062 4.08789 11.4062C8.98828 11.4062 11.6543 7.36914 11.6543 3.83984C11.6543 3.71289 11.6543 3.61133 11.6543 3.48438Z" fill="white"/>
</svg>
