<svg width="16" height="16" viewBox="0 0 16 16" fill="none" xmlns="http://www.w3.org/2000/svg">
<path d="M7.75 3.25C6.09375 3.25 4.75 4.59375 4.75 6.25C4.75 7.90625 6.09375 9.25 7.75 9.25C9.40625 9.25 10.75 7.90625 10.75 6.25C10.75 4.59375 9.40625 3.25 7.75 3.25ZM7.75 7.75C6.90625 7.75 6.25 7.09375 6.25 6.25C6.25 5.4375 6.90625 4.75 7.75 4.75C8.5625 4.75 9.25 5.4375 9.25 6.25C9.25 7.09375 8.5625 7.75 7.75 7.75ZM7.75 0.25C3.46875 0.25 0 3.71875 0 8C0 12.2812 3.46875 15.75 7.75 15.75C12.0312 15.75 15.5 12.2812 15.5 8C15.5 3.71875 12.0312 0.25 7.75 0.25ZM7.75 14.25C6.1875 14.25 4.75 13.6875 3.65625 12.75C4.125 12.0312 4.9375 11.5312 5.84375 11.5312C6.5 11.7188 7.125 11.8125 7.75 11.8125C8.34375 11.8125 8.96875 11.7188 9.625 11.5312C10.5312 11.5625 11.3438 12.0312 11.8125 12.75C10.7188 13.6875 9.28125 14.25 7.75 14.25ZM12.8125 11.625C12.0625 10.6562 10.875 10 9.53125 10C9.21875 10 8.71875 10.3125 7.75 10.3125C6.75 10.3125 6.25 10 5.9375 10C4.59375 10 3.40625 10.6562 2.65625 11.625C1.90625 10.625 1.5 9.375 1.5 8C1.5 4.5625 4.28125 1.75 7.75 1.75C11.1875 1.75 14 4.5625 14 8C14 9.375 13.5625 10.625 12.8125 11.625Z" fill="#6345ED"/>
</svg>
