<svg width="15" height="10" viewBox="0 0 15 10" fill="none" xmlns="http://www.w3.org/2000/svg">
<path d="M13.9395 1.79883C13.7871 1.18945 13.3047 0.707031 12.7207 0.554688C11.6289 0.25 7.3125 0.25 7.3125 0.25C7.3125 0.25 2.9707 0.25 1.87891 0.554688C1.29492 0.707031 0.8125 1.18945 0.660156 1.79883C0.355469 2.86523 0.355469 5.15039 0.355469 5.15039C0.355469 5.15039 0.355469 7.41016 0.660156 8.50195C0.8125 9.11133 1.29492 9.56836 1.87891 9.7207C2.9707 10 7.3125 10 7.3125 10C7.3125 10 11.6289 10 12.7207 9.7207C13.3047 9.56836 13.7871 9.11133 13.9395 8.50195C14.2441 7.41016 14.2441 5.15039 14.2441 5.15039C14.2441 5.15039 14.2441 2.86523 13.9395 1.79883ZM5.89062 7.20703V3.09375L9.49609 5.15039L5.89062 7.20703Z" fill="white"/>
</svg>
