<svg width="512" height="512" viewBox="0 0 512 512" fill="none" xmlns="http://www.w3.org/2000/svg">
<path d="M224 224V288C224 290.122 223.157 292.157 221.657 293.657C220.157 295.157 218.122 296 216 296C214.604 295.992 213.234 295.618 212.027 294.916C210.82 294.214 209.818 293.209 209.12 292L176 248V288C176 290.122 175.157 292.157 173.657 293.657C172.157 295.157 170.122 296 168 296C165.878 296 163.843 295.157 162.343 293.657C160.843 292.157 160 290.122 160 288V224C160 221.878 160.843 219.843 162.343 218.343C163.843 216.843 165.878 216 168 216C169.396 216.008 170.766 216.382 171.973 217.084C173.18 217.786 174.182 218.791 174.88 220L208 264V224C208 221.878 208.843 219.843 210.343 218.343C211.843 216.843 213.878 216 216 216C218.122 216 220.157 216.843 221.657 218.343C223.157 219.843 224 221.878 224 224Z" fill="#061237"/>
<path d="M280 232C282.122 232 284.157 231.157 285.657 229.657C287.157 228.157 288 226.122 288 224C288 221.878 287.157 219.843 285.657 218.343C284.157 216.843 282.122 216 280 216H248C245.878 216 243.843 216.843 242.343 218.343C240.843 219.843 240 221.878 240 224V288C240 290.122 240.843 292.157 242.343 293.657C243.843 295.157 245.878 296 248 296C250.122 296 252.157 295.157 253.657 293.657C255.157 292.157 256 290.122 256 288V264H280C282.122 264 284.157 263.157 285.657 261.657C287.157 260.157 288 258.122 288 256C288 253.878 287.157 251.843 285.657 250.343C284.157 248.843 282.122 248 280 248H256V232H280Z" fill="#061237"/>
<path d="M328 296C330.122 296 332.157 295.157 333.657 293.657C335.157 292.157 336 290.122 336 288V232H344C346.122 232 348.157 231.157 349.657 229.657C351.157 228.157 352 226.122 352 224C352 221.878 351.157 219.843 349.657 218.343C348.157 216.843 346.122 216 344 216H312C309.878 216 307.843 216.843 306.343 218.343C304.843 219.843 304 221.878 304 224C304 226.122 304.843 228.157 306.343 229.657C307.843 231.157 309.878 232 312 232H320V288C320 290.122 320.843 292.157 322.343 293.657C323.843 295.157 325.878 296 328 296Z" fill="#061237"/>
<path d="M64 128H32V160H64V128Z" fill="#061237"/>
<path d="M472 400H440V432H472V400Z" fill="#061237"/>
<path d="M448 264C440.924 264.023 434.054 266.391 428.467 270.734C422.879 275.076 418.889 281.148 417.12 288H384V224H417.12C419.067 231.541 423.698 238.114 430.144 242.485C436.59 246.856 444.409 248.726 452.136 247.745C459.862 246.764 466.966 242.998 472.115 237.154C477.263 231.31 480.104 223.789 480.104 216C480.104 208.211 477.263 200.69 472.115 194.846C466.966 189.002 459.862 185.236 452.136 184.255C444.409 183.274 436.59 185.144 430.144 189.515C423.698 193.886 419.067 200.459 417.12 208H384V200.56C383.966 193.478 382.052 186.532 378.453 180.432C374.855 174.331 369.702 169.296 363.52 165.84L336 150.64V115.28L352 99.28C358.818 103.255 366.852 104.604 374.595 103.076C382.337 101.547 389.255 97.2447 394.051 90.9768C398.846 84.7089 401.189 76.9063 400.639 69.0335C400.09 61.1608 396.686 53.7592 391.066 48.2183C385.447 42.6773 377.998 39.3779 370.118 38.9393C362.239 38.5008 354.47 40.9534 348.27 45.8366C342.07 50.7198 337.866 57.698 336.447 65.4612C335.027 73.2243 336.49 81.2387 340.56 88L322.32 106.16C321.559 106.926 320.961 107.839 320.563 108.843C320.164 109.846 319.972 110.92 320 112V141.76L275.12 116.88C271.632 115.003 267.884 113.655 264 112.88V78.88C271.541 76.9328 278.113 72.3022 282.485 65.8559C286.856 59.4097 288.726 51.5905 287.745 43.864C286.764 36.1375 282.998 29.0341 277.154 23.8854C271.31 18.7367 263.789 15.8961 256 15.8961C248.211 15.8961 240.69 18.7367 234.846 23.8854C229.002 29.0341 225.236 36.1375 224.255 43.864C223.274 51.5905 225.144 59.4097 229.515 65.8559C233.886 72.3022 240.459 76.9328 248 78.88V112.88C244.103 113.652 240.351 115.028 236.88 116.96L192 141.76V112C192.006 110.947 191.804 109.903 191.406 108.929C191.008 107.954 190.421 107.068 189.68 106.32L171.44 88C175.448 81.2073 176.841 73.186 175.357 65.44C173.873 57.6939 169.615 50.755 163.381 45.9242C157.146 41.0934 149.364 38.7025 141.493 39.1997C133.621 39.6969 126.202 43.0481 120.625 48.625C115.048 54.2019 111.697 61.6215 111.2 69.4927C110.703 77.3639 113.093 85.1462 117.924 91.3805C122.755 97.6148 129.694 101.873 137.44 103.357C145.186 104.84 153.207 103.448 160 99.44L176 115.44V150.8L153.12 163.52C151.274 164.581 149.925 166.332 149.37 168.387C148.815 170.442 149.099 172.634 150.16 174.48C151.221 176.326 152.972 177.675 155.027 178.23C157.082 178.785 159.274 178.501 161.12 177.44L244.88 131.12C248.392 129.215 252.325 128.218 256.32 128.218C260.315 128.218 264.248 129.215 267.76 131.12L355.76 180C359.42 182.057 362.477 185.038 364.625 188.646C366.773 192.254 367.937 196.362 368 200.56V311.44C367.973 315.658 366.834 319.793 364.699 323.431C362.564 327.069 359.509 330.079 355.84 332.16L267.84 381.04C264.328 382.944 260.395 383.942 256.4 383.942C252.405 383.942 248.472 382.944 244.96 381.04L156.96 332.16C153.142 330.184 149.925 327.218 147.645 323.573C145.365 319.928 144.106 315.738 144 311.44V200.56C143.961 199.347 144.096 198.135 144.4 196.96C144.867 194.838 144.472 192.618 143.301 190.788C142.131 188.957 140.282 187.667 138.16 187.2C136.038 186.733 133.818 187.128 131.988 188.299C130.157 189.469 128.867 191.318 128.4 193.44C127.907 195.781 127.665 198.168 127.68 200.56V208H94.88C92.9328 200.459 88.3022 193.886 81.8559 189.515C75.4097 185.144 67.5905 183.274 59.864 184.255C52.1375 185.236 45.0341 189.002 39.8854 194.846C34.7367 200.69 31.8961 208.211 31.8961 216C31.8961 223.789 34.7367 231.31 39.8854 237.154C45.0341 242.998 52.1375 246.764 59.864 247.745C67.5905 248.726 75.4097 246.856 81.8559 242.485C88.3022 238.114 92.9328 231.541 94.88 224H128V288H94.88C92.9328 280.459 88.3022 273.886 81.8559 269.515C75.4097 265.144 67.5905 263.274 59.864 264.255C52.1375 265.236 45.0341 269.002 39.8854 274.846C34.7367 280.69 31.8961 288.211 31.8961 296C31.8961 303.789 34.7367 311.31 39.8854 317.154C45.0341 322.998 52.1375 326.764 59.864 327.745C67.5905 328.726 75.4097 326.856 81.8559 322.485C88.3022 318.114 92.9328 311.541 94.88 304H128V311.44C128.034 318.522 129.948 325.468 133.547 331.568C137.145 337.669 142.298 342.704 148.48 346.16L176 361.36V396.72L160 412.72C153.182 408.745 145.148 407.396 137.405 408.924C129.663 410.453 122.745 414.755 117.949 421.023C113.154 427.291 110.811 435.094 111.36 442.966C111.91 450.839 115.314 458.241 120.934 463.782C126.553 469.323 134.002 472.622 141.882 473.061C149.761 473.499 157.53 471.047 163.73 466.163C169.93 461.28 174.134 454.302 175.553 446.539C176.973 438.776 175.51 430.761 171.44 424L189.68 405.84C190.441 405.074 191.039 404.161 191.437 403.157C191.836 402.154 192.027 401.08 192 400V370.24L236.88 395.12C240.368 396.997 244.116 398.345 248 399.12V433.12C240.459 435.067 233.886 439.698 229.515 446.144C225.144 452.59 223.274 460.409 224.255 468.136C225.236 475.862 229.002 482.966 234.846 488.115C240.69 493.263 248.211 496.104 256 496.104C263.789 496.104 271.31 493.263 277.154 488.115C282.998 482.966 286.764 475.862 287.745 468.136C288.726 460.409 286.856 452.59 282.485 446.144C278.113 439.698 271.541 435.067 264 433.12V399.12C267.897 398.348 271.649 396.972 275.12 395.04L320 370.24V400C319.994 401.053 320.196 402.097 320.594 403.071C320.992 404.046 321.579 404.932 322.32 405.68L340.56 424C336.552 430.793 335.159 438.814 336.643 446.56C338.127 454.306 342.385 461.245 348.619 466.076C354.854 470.907 362.636 473.297 370.507 472.8C378.378 472.303 385.798 468.952 391.375 463.375C396.952 457.798 400.303 450.378 400.8 442.507C401.297 434.636 398.907 426.854 394.076 420.619C389.245 414.385 382.306 410.127 374.56 408.643C366.814 407.159 358.793 408.552 352 412.56L336 396.56V361.36L363.6 346.08C369.755 342.62 374.885 337.593 378.468 331.509C382.051 325.425 383.96 318.501 384 311.44V304H417.12C418.617 309.799 421.712 315.062 426.053 319.189C430.393 323.317 435.805 326.143 441.672 327.347C447.539 328.551 453.627 328.084 459.242 325.999C464.857 323.914 469.774 320.296 473.434 315.555C477.094 310.814 479.35 305.14 479.945 299.181C480.541 293.221 479.451 287.213 476.802 281.842C474.152 276.471 470.047 271.951 464.956 268.797C459.864 265.642 453.989 263.981 448 264V264ZM448 200C451.165 200 454.258 200.938 456.889 202.696C459.52 204.455 461.571 206.953 462.782 209.877C463.993 212.801 464.31 216.018 463.693 219.121C463.075 222.225 461.551 225.076 459.314 227.314C457.076 229.551 454.225 231.075 451.121 231.693C448.018 232.31 444.801 231.993 441.877 230.782C438.953 229.571 436.455 227.52 434.696 224.889C432.938 222.258 432 219.164 432 216C432 211.757 433.686 207.687 436.686 204.686C439.687 201.686 443.757 200 448 200ZM368 56C370.628 56.0021 373.215 56.6514 375.532 57.8906C377.85 59.1299 379.826 60.9208 381.287 63.1052C382.748 65.2896 383.648 67.8002 383.909 70.4152C384.169 73.0301 383.781 75.669 382.779 78.0985C381.778 80.528 380.193 82.6734 378.165 84.3451C376.138 86.0169 373.73 87.1634 371.154 87.6835C368.578 88.2036 365.913 88.0812 363.396 87.3271C360.879 86.5731 358.586 85.2106 356.72 83.36C354.468 81.1268 352.931 78.275 352.304 75.1665C351.676 72.0581 351.986 68.8332 353.195 65.9015C354.404 62.9697 356.456 60.4632 359.092 58.7003C361.728 56.9373 364.829 55.9975 368 56V56ZM128 72C128.002 69.3721 128.651 66.7852 129.891 64.4678C131.13 62.1504 132.921 60.174 135.105 58.713C137.29 57.2521 139.8 56.3517 142.415 56.0914C145.03 55.8312 147.669 56.219 150.098 57.2206C152.528 58.2222 154.673 59.8069 156.345 61.8345C158.017 63.8621 159.163 66.2703 159.684 68.8462C160.204 71.4221 160.081 74.0865 159.327 76.6039C158.573 79.1213 157.211 81.4142 155.36 83.28V83.28C153.127 85.5315 150.275 87.0687 147.167 87.6963C144.058 88.3239 140.833 88.0136 137.901 86.8049C134.97 85.5962 132.463 83.5435 130.7 80.9076C128.937 78.2716 127.997 75.1712 128 72ZM240 48C240 44.8355 240.938 41.742 242.696 39.1109C244.455 36.4797 246.953 34.4289 249.877 33.2179C252.801 32.0069 256.018 31.6901 259.121 32.3074C262.225 32.9248 265.076 34.4486 267.314 36.6863C269.551 38.9239 271.075 41.7748 271.693 44.8785C272.31 47.9822 271.993 51.1993 270.782 54.1229C269.571 57.0465 267.52 59.5454 264.889 61.3035C262.258 63.0616 259.164 64 256 64C251.757 64 247.687 62.3143 244.686 59.3137C241.686 56.3131 240 52.2434 240 48ZM64 232C60.8355 232 57.742 231.062 55.1109 229.303C52.4797 227.545 50.4289 225.047 49.2179 222.123C48.0069 219.199 47.6901 215.982 48.3074 212.879C48.9248 209.775 50.4486 206.924 52.6863 204.686C54.9239 202.449 57.7748 200.925 60.8785 200.307C63.9822 199.69 67.1993 200.007 70.1229 201.218C73.0465 202.429 75.5454 204.48 77.3035 207.111C79.0616 209.742 80 212.835 80 216C80 220.243 78.3143 224.313 75.3137 227.314C72.3131 230.314 68.2434 232 64 232ZM64 312C60.8355 312 57.742 311.062 55.1109 309.304C52.4797 307.545 50.4289 305.047 49.2179 302.123C48.0069 299.199 47.6901 295.982 48.3074 292.879C48.9248 289.775 50.4486 286.924 52.6863 284.686C54.9239 282.449 57.7748 280.925 60.8785 280.307C63.9822 279.69 67.1993 280.007 70.1229 281.218C73.0465 282.429 75.5454 284.48 77.3035 287.111C79.0616 289.742 80 292.835 80 296C80 300.243 78.3143 304.313 75.3137 307.314C72.3131 310.314 68.2434 312 64 312ZM144 456C141.372 455.998 138.785 455.349 136.468 454.109C134.15 452.87 132.174 451.079 130.713 448.895C129.252 446.71 128.352 444.2 128.091 441.585C127.831 438.97 128.219 436.331 129.221 433.901C130.222 431.472 131.807 429.327 133.835 427.655C135.862 425.983 138.27 424.837 140.846 424.316C143.422 423.796 146.086 423.919 148.604 424.673C151.121 425.427 153.414 426.789 155.28 428.64C157.532 430.873 159.069 433.725 159.696 436.833C160.324 439.942 160.014 443.167 158.805 446.099C157.596 449.03 155.544 451.537 152.908 453.3C150.272 455.063 147.171 456.003 144 456ZM272 464C272 467.165 271.062 470.258 269.304 472.889C267.545 475.52 265.047 477.571 262.123 478.782C259.199 479.993 255.982 480.31 252.879 479.693C249.775 479.075 246.924 477.551 244.686 475.314C242.449 473.076 240.925 470.225 240.307 467.121C239.69 464.018 240.007 460.801 241.218 457.877C242.429 454.953 244.48 452.455 247.111 450.696C249.742 448.938 252.835 448 256 448C260.243 448 264.313 449.686 267.314 452.686C270.314 455.687 272 459.757 272 464ZM384 440C383.998 442.628 383.349 445.215 382.109 447.532C380.87 449.85 379.079 451.826 376.895 453.287C374.71 454.748 372.2 455.648 369.585 455.909C366.97 456.169 364.331 455.781 361.901 454.779C359.472 453.778 357.327 452.193 355.655 450.165C353.983 448.138 352.837 445.73 352.316 443.154C351.796 440.578 351.919 437.913 352.673 435.396C353.427 432.879 354.789 430.586 356.64 428.72C358.873 426.468 361.725 424.931 364.833 424.304C367.942 423.676 371.167 423.986 374.099 425.195C377.03 426.404 379.537 428.456 381.3 431.092C383.063 433.728 384.003 436.829 384 440V440ZM448 312C444.835 312 441.742 311.062 439.111 309.304C436.48 307.545 434.429 305.047 433.218 302.123C432.007 299.199 431.69 295.982 432.307 292.879C432.925 289.775 434.449 286.924 436.686 284.686C438.924 282.449 441.775 280.925 444.879 280.307C447.982 279.69 451.199 280.007 454.123 281.218C457.047 282.429 459.545 284.48 461.304 287.111C463.062 289.742 464 292.835 464 296C464 300.243 462.314 304.313 459.314 307.314C456.313 310.314 452.243 312 448 312Z" fill="#061237"/>
</svg>
