<svg width="512" height="512" viewBox="0 0 512 512" fill="none" xmlns="http://www.w3.org/2000/svg">
<path d="M447.174 66.5827H441.099C452.679 47.7301 448.403 22.4196 429.819 8.63083C409.794 -6.22488 381.338 -1.44298 367.363 19.4406L335.817 66.5837H64.8257C42.5512 66.5837 24.4295 84.7053 24.4295 106.98V365.249C24.4295 387.523 42.5512 405.645 64.8257 405.645H221.737L209.881 455.441H184.292C167.616 455.441 154.048 469.008 154.048 485.685V491.999H122.504C116.981 491.999 112.504 496.477 112.504 501.999C112.504 507.521 116.981 511.999 122.504 511.999H389.497C395.02 511.999 399.497 507.521 399.497 501.999C399.497 496.477 395.02 491.999 389.497 491.999H357.953V485.685C357.953 469.008 344.385 455.441 327.709 455.441H302.12L290.264 405.645H447.175C469.45 405.645 487.571 387.523 487.571 365.249V308.42V106.979C487.571 84.7043 469.45 66.5827 447.174 66.5827V66.5827ZM303.895 242.378C288.26 253.323 258.97 238.446 230.998 253.372C224.174 217.918 228.477 184.573 264.001 177.214C268.592 176.257 273.535 175.824 277.743 175.908C289.766 184.828 301.928 193.851 313.918 202.748C319.167 218.016 317.197 233.067 303.895 242.378ZM313.973 135.192L342.279 156.194L320.511 182.734C311.549 176.086 303.845 170.37 294.883 163.72C296.744 160.939 312.272 137.733 313.973 135.192V135.192ZM383.986 30.5634C391.559 19.2426 407.006 16.6087 417.902 24.6935C428.802 32.7794 430.754 48.325 422.117 58.8558C406.792 77.5385 370.359 121.959 354.976 140.713L325.107 118.552L383.986 30.5634ZM337.952 485.685V491.999H174.048V485.685C174.048 480.037 178.644 475.441 184.292 475.441H327.708C333.356 475.441 337.952 480.037 337.952 485.685ZM281.561 455.441H230.44L242.295 405.645H269.705L281.561 455.441ZM467.572 365.249C467.572 376.496 458.422 385.645 447.175 385.645C431.302 385.645 82.6744 385.645 64.8267 385.645C53.58 385.645 44.4301 376.496 44.4301 365.249V318.42H73.0056C78.5285 318.42 83.0054 313.942 83.0054 308.42C83.0054 302.898 78.5285 298.42 73.0056 298.42H44.4281V106.979C44.4281 95.7321 53.578 86.5823 64.8247 86.5823H322.435C312.855 100.899 284.906 142.666 276.054 155.895C256.457 156.072 236.892 162.899 224.085 177.851C206.656 198.195 203.594 230.162 214.984 272.864C216.931 280.166 226.042 282.781 231.554 277.516C257.411 252.809 289.614 279.759 318.453 256.417C336.056 242.167 340.222 219.514 333.585 198.33C342.557 187.39 416.247 97.5481 425.241 86.5823H447.173C458.42 86.5823 467.57 95.7321 467.57 106.979V298.419H153.002C147.479 298.419 143.002 302.897 143.002 308.419C143.002 313.941 147.479 318.419 153.002 318.419H467.572V365.249Z" fill="#061237"/>
<path d="M111.073 298.613C106.259 299.597 103.033 303.758 103.033 308.424C103.033 314.679 108.752 319.469 114.983 318.224C120.52 317.1 123.893 311.764 122.833 306.464C121.72 300.994 116.414 297.538 111.073 298.613V298.613Z" fill="#061237"/>
</svg>
