<svg width="512" height="512" viewBox="0 0 512 512" fill="none" xmlns="http://www.w3.org/2000/svg">
<path d="M456 276.24V119.36C483.096 115.456 504 92.152 504 64C504 33.128 478.88 8 448 8C417.12 8 392 33.128 392 64H8V384H248.408C252.568 450.848 308.128 504 376 504C446.576 504 504 446.576 504 376C504 335.688 485.224 299.72 456 276.24ZM448 24C470.056 24 488 41.944 488 64C488 86.056 470.056 104 448 104C425.944 104 408 86.056 408 64C408 41.944 425.944 24 448 24ZM24 80H394.36C396.272 86.384 399.312 92.264 403.216 97.48L354.288 146.408C351.152 144.904 347.696 144 344 144C340.304 144 336.848 144.904 333.72 146.408L317.6 130.288C319.096 127.152 320 123.696 320 120C320 106.768 309.232 96 296 96C282.768 96 272 106.768 272 120C272 123.696 272.904 127.152 274.408 130.28L234.288 170.4C231.152 168.904 227.696 168 224 168C210.768 168 200 178.768 200 192C200 205.232 210.768 216 224 216C237.232 216 248 205.232 248 192C248 188.304 247.096 184.848 245.592 181.72L285.712 141.6C288.848 143.096 292.304 144 296 144C299.696 144 303.152 143.096 306.28 141.592L322.4 157.712C320.904 160.848 320 164.304 320 168C320 181.232 330.768 192 344 192C357.232 192 368 181.232 368 168C368 164.304 367.096 160.848 365.592 157.72L414.528 108.792C421.848 114.28 430.536 118 440 119.368V265.328C421.144 254.376 399.328 248 376 248C337.76 248 303.472 264.944 280 291.624V256H232V352H250.336C249.344 357.224 248.744 362.576 248.408 368H24V80ZM344 160C348.408 160 352 163.584 352 168C352 172.416 348.408 176 344 176C339.592 176 336 172.416 336 168C336 163.584 339.592 160 344 160ZM288 120C288 115.584 291.592 112 296 112C300.408 112 304 115.584 304 120C304 124.416 300.408 128 296 128C291.592 128 288 124.416 288 120ZM232 192C232 196.416 228.408 200 224 200C219.592 200 216 196.416 216 192C216 187.584 219.592 184 224 184C228.408 184 232 187.584 232 192ZM376 440C340.712 440 312 411.288 312 376C312 340.712 340.712 312 376 312C411.288 312 440 340.712 440 376C440 411.288 411.288 440 376 440ZM264 314.168C260.168 321.08 257 328.384 254.488 336H248V272H264V314.168ZM368 264.408V296.408C327.632 300.44 296 334.592 296 376C296 387.704 298.592 398.8 303.128 408.832L275.376 424.856C268.16 410.072 264 393.528 264 376C264 316.944 309.976 268.536 368 264.408ZM376 488C337.488 488 303.456 468.456 283.296 438.76L311.16 422.672C325.704 442.816 349.312 456 376 456C402.688 456 426.296 442.816 440.84 422.672L468.704 438.76C448.544 468.456 414.512 488 376 488V488ZM476.624 424.856L448.872 408.832C453.408 398.8 456 387.704 456 376C456 334.592 424.368 300.432 384 296.408V264.408C442.024 268.536 488 316.944 488 376C488 393.528 483.84 410.072 476.624 424.856Z" fill="#061237"/>
<path d="M376 328C349.528 328 328 349.528 328 376C328 402.472 349.528 424 376 424C402.472 424 424 402.472 424 376C424 349.528 402.472 328 376 328ZM376 408C358.352 408 344 393.648 344 376C344 358.352 358.352 344 376 344C393.648 344 408 358.352 408 376C408 393.648 393.648 408 376 408Z" fill="#061237"/>
<path d="M40 96H56V112H40V96Z" fill="#061237"/>
<path d="M72 96H184V112H72V96Z" fill="#061237"/>
<path d="M40 128H56V144H40V128Z" fill="#061237"/>
<path d="M72 128H184V144H72V128Z" fill="#061237"/>
<path d="M40 160H56V176H40V160Z" fill="#061237"/>
<path d="M72 160H184V176H72V160Z" fill="#061237"/>
<path d="M40 192H56V208H40V192Z" fill="#061237"/>
<path d="M72 192H184V208H72V192Z" fill="#061237"/>
<path d="M40 352H88V272H40V352ZM56 288H72V336H56V288Z" fill="#061237"/>
<path d="M104 352H152V288H104V352ZM120 304H136V336H120V304Z" fill="#061237"/>
<path d="M168 352H216V224H168V352ZM184 240H200V336H184V240Z" fill="#061237"/>
</svg>
