<svg width="452" height="512" viewBox="0 0 452 512" fill="none" xmlns="http://www.w3.org/2000/svg">
<path d="M436.182 328.079L438.262 324.417C440.309 320.812 439.046 316.23 435.441 314.183C431.838 312.136 427.255 313.398 425.209 317.003L423.978 319.171C418.876 316.482 413.278 314.615 407.356 313.754V198.246C432.444 194.598 451.779 172.951 451.779 146.867C451.779 131.811 445.332 118.236 435.06 108.743L438.262 103.105C440.309 99.5 439.046 94.9185 435.441 92.8709C431.838 90.8244 427.255 92.0863 425.209 95.6911L422.639 100.218C415.754 96.841 408.022 94.9375 399.85 94.9375C382.918 94.9375 367.857 103.086 358.372 115.663L274.693 69.9684C276.782 64.3461 277.929 58.2705 277.929 51.9297C277.929 37.6167 272.109 24.6378 262.71 15.2346L264.993 11.2126C267.041 7.60782 265.778 3.02632 262.173 0.978759C258.57 -1.0678 253.987 0.194159 251.94 3.79891L250.578 6.19774C243.257 2.24673 234.887 1.11808e-05 226 1.11808e-05C197.368 1.11808e-05 174.072 23.2948 174.072 51.9287C174.072 58.2685 175.219 64.3451 177.308 69.9674L93.5263 115.72C91.5348 113.096 89.3031 110.663 86.8642 108.453L89.9006 103.105C91.9481 99.5 90.6852 94.9185 87.0804 92.8709C83.4767 90.8244 78.8942 92.0863 76.8476 95.6911L74.3807 100.035C68.3901 97.1422 61.7951 95.3618 54.8728 95.0076C45.1874 94.5122 35.6401 96.6919 27.2167 101.31C23.5819 103.304 22.2519 107.866 24.2444 111.501C26.2369 115.135 30.7994 116.466 34.4352 114.473C40.4168 111.193 47.221 109.644 54.1032 110C58.6377 110.232 62.975 111.324 66.96 113.102L49.3936 144.037L44.3248 138.668C41.4766 135.654 36.727 135.52 33.7137 138.364C30.6994 141.21 30.5643 145.96 33.4094 148.975L45.4496 161.726C46.8767 163.237 48.8542 164.078 50.9058 164.078C51.205 164.078 51.5062 164.06 51.8065 164.024C54.1693 163.739 56.2569 162.349 57.4328 160.279L79.2184 121.915C84.9007 128.064 88.5555 136.103 89.0149 144.873C89.5673 155.425 85.7934 165.356 78.3888 172.837C70.9831 180.32 61.0946 184.185 50.5465 183.751C32.0634 182.973 16.5916 167.906 15.3226 149.449C14.9773 144.438 15.6339 139.504 17.2691 134.781C18.6251 130.864 16.5506 126.589 12.6346 125.232C8.71357 123.873 4.4413 125.95 3.08426 129.866C0.783508 136.506 -0.138194 143.442 0.346176 150.479C2.03947 175.105 20.6907 194.807 44.645 198.254V313.756C19.5568 317.404 0.22208 339.051 0.22208 365.135C0.22208 393.769 23.5169 417.063 52.1507 417.063C69.0827 417.063 84.1442 408.916 93.6294 396.339L177.308 442.035C175.219 447.657 174.072 453.732 174.072 460.073C174.072 488.707 197.367 512.002 226 512.002C254.634 512.002 277.929 488.707 277.929 460.073C277.929 453.733 276.782 447.657 274.693 442.035L358.372 396.339C367.858 408.916 382.918 417.063 399.85 417.063C428.483 417.063 451.779 393.769 451.779 365.135C451.778 350.634 445.797 337.509 436.182 328.079V328.079ZM399.85 109.951C405.328 109.951 410.525 111.159 415.205 113.309L397.755 144.038L392.686 138.669C389.839 135.655 385.088 135.521 382.075 138.365C379.06 141.211 378.925 145.961 381.77 148.976L393.811 161.727C395.238 163.238 397.215 164.079 399.267 164.079C399.566 164.079 399.867 164.061 400.167 164.025C402.53 163.74 404.618 162.35 405.794 160.28L427.365 122.292C433.206 128.824 436.765 137.438 436.765 146.869C436.765 167.225 420.205 183.786 399.848 183.786C379.492 183.786 362.93 167.226 362.93 146.869C362.932 126.512 379.494 109.951 399.85 109.951V109.951ZM226 15.0125C232.193 15.0125 238.031 16.5527 243.162 19.2587L224.486 52.1458L219.417 46.7767C216.569 43.7624 211.819 43.6283 208.806 46.4725C205.792 49.3187 205.657 54.0693 208.502 57.0836L220.542 69.8343C221.969 71.3445 223.947 72.1871 225.998 72.1871C226.298 72.1871 226.599 72.1691 226.899 72.1331C229.262 71.8479 231.351 70.4578 232.525 68.3882L254.895 28.9952C259.908 35.299 262.916 43.2681 262.916 51.9307C262.916 72.2862 246.355 88.8479 225.998 88.8479C205.642 88.8479 189.081 72.2872 189.081 51.9307C189.083 31.5741 205.644 15.0125 226 15.0125V15.0125ZM52.1507 402.051C31.7942 402.051 15.2335 385.49 15.2335 365.134C15.2335 344.778 31.7942 328.217 52.1507 328.217C57.9592 328.217 63.4554 329.57 68.3491 331.97L49.3936 365.349L44.3248 359.98C41.4766 356.966 36.727 356.831 33.7137 359.676C30.6994 362.522 30.5643 367.272 33.4094 370.287L45.4496 383.038C46.8767 384.549 48.8542 385.39 50.9058 385.39C51.205 385.39 51.5062 385.372 51.8065 385.336C54.1693 385.051 56.2569 383.661 57.4328 381.591L80.3112 341.302C85.7664 347.738 89.0669 356.056 89.0669 365.134C89.0689 385.489 72.5073 402.051 52.1507 402.051ZM226 496.989C205.644 496.989 189.083 480.428 189.083 460.071C189.083 439.716 205.644 423.154 226 423.154C231.234 423.154 236.213 424.256 240.729 426.229L224.487 454.829L219.418 449.46C216.57 446.446 211.82 446.312 208.807 449.156C205.793 452.002 205.658 456.753 208.503 459.767L220.543 472.518C221.97 474.029 223.948 474.871 225.999 474.871C226.299 474.871 226.6 474.853 226.9 474.817C229.263 474.531 231.351 473.141 232.526 471.072L253.03 434.964C259.159 441.557 262.917 450.382 262.917 460.072C262.918 480.427 246.357 496.989 226 496.989V496.989ZM399.85 402.051C379.494 402.051 362.932 385.49 362.932 365.134C362.932 363.197 363.088 361.232 363.397 359.29C364.048 355.196 361.256 351.35 357.164 350.7C353.065 350.053 349.223 352.84 348.572 356.935C348.14 359.653 347.922 362.412 347.922 365.135C347.922 371.476 349.068 377.551 351.158 383.174L267.48 428.87C265.46 426.19 263.185 423.714 260.694 421.473L264.995 413.899C267.043 410.294 265.78 405.713 262.175 403.665C258.572 401.619 253.989 402.881 251.942 406.485L248.171 413.125C241.443 409.935 233.93 408.144 226.003 408.144C209.072 408.144 194.01 416.292 184.525 428.868L100.846 383.173C102.936 377.55 104.082 371.474 104.082 365.134C104.082 350.421 97.9217 337.127 88.0562 327.67L89.9026 324.418C91.9501 320.813 90.6872 316.231 87.0824 314.184C83.4787 312.137 78.8962 313.399 76.8496 317.004L75.7678 318.909C70.804 316.362 65.3838 314.587 59.6585 313.755V198.237C70.7279 196.608 81.0978 191.441 89.0599 183.398C99.3258 173.028 104.774 158.7 104.009 144.088C103.731 138.776 102.608 133.659 100.796 128.857L184.525 83.1335C194.01 95.7111 209.072 103.858 226.003 103.858C242.933 103.858 257.995 95.7101 267.48 83.1335L351.159 128.829C349.069 134.452 347.923 140.528 347.923 146.868C347.923 172.952 367.257 194.598 392.347 198.247V313.768C383.289 315.102 374.648 318.812 367.455 324.564C364.217 327.152 363.691 331.875 366.28 335.114C368.867 338.351 373.59 338.878 376.829 336.289C383.434 331.009 391.395 328.218 399.852 328.218C405.866 328.218 411.542 329.672 416.563 332.233L397.757 365.351L392.688 359.982C389.841 356.968 385.09 356.833 382.077 359.678C379.062 362.524 378.927 367.274 381.772 370.289L393.813 383.04C395.24 384.551 397.217 385.392 399.269 385.392C399.568 385.392 399.869 385.374 400.17 385.338C402.532 385.053 404.62 383.663 405.796 381.593L428.409 341.771C433.629 348.14 436.767 356.278 436.767 365.137C436.766 385.489 420.206 402.051 399.85 402.051V402.051Z" fill="#061237"/>
<path d="M279.26 208.875C276.99 205.405 272.34 204.433 268.87 206.702C265.401 208.971 264.429 213.623 266.698 217.092L292.599 256.692L225.5 298.381L158.4 256.692L225.5 154.112L249.104 190.197C251.375 193.667 256.024 194.639 259.494 192.37C262.964 190.101 263.935 185.449 261.667 181.98L237.176 144.538C234.589 140.584 230.225 138.224 225.5 138.224C220.775 138.224 216.411 140.584 213.824 144.538L144.896 249.915C141.904 254.485 141.863 260.419 144.791 265.033L213.721 373.599C216.295 377.653 220.699 380.073 225.501 380.073C230.303 380.073 234.706 377.653 237.28 373.599L306.21 265.032C309.138 260.419 309.097 254.485 306.106 249.917L279.26 208.875ZM225.5 364.144L175.076 284.724L221.539 313.591C222.752 314.345 224.126 314.721 225.5 314.721C226.874 314.721 228.248 314.345 229.461 313.591L275.925 284.723L225.5 364.144Z" fill="#061237"/>
</svg>
