<svg width="496" height="496" viewBox="0 0 496 496" fill="none" xmlns="http://www.w3.org/2000/svg">
<path d="M112 320H128V302.864C141.76 299.288 152 286.872 152 272C152 262.456 147.8 253.864 141.144 248C147.8 242.136 152 233.544 152 224C152 209.128 141.76 196.712 128 193.136V176H112V192H88V304H112V320ZM104 208H120C128.824 208 136 215.176 136 224C136 232.824 128.824 240 120 240H104V208ZM104 288V256H120C128.824 256 136 263.176 136 272C136 280.824 128.824 288 120 288H104Z" fill="#061237"/>
<path d="M472 224C461.584 224 452.784 230.712 449.472 240H304V256H449.472C452.784 265.288 461.584 272 472 272C485.232 272 496 261.232 496 248C496 234.768 485.232 224 472 224ZM472 256C467.592 256 464 252.416 464 248C464 243.584 467.592 240 472 240C476.408 240 480 243.584 480 248C480 252.416 476.408 256 472 256Z" fill="#061237"/>
<path d="M416 288C405.584 288 396.784 294.712 393.472 304H355.312L323.312 272H256V288H316.688L348.688 320H393.472C395.888 326.776 401.224 332.112 408 334.528V472C408 476.416 404.408 480 400 480H80C75.592 480 72 476.416 72 472V344.928C72.272 344.776 72.568 344.68 72.84 344.52C75.024 343.216 77.76 343.024 80.328 344.104C82.696 345.088 84.48 347.152 85.152 349.776C87.872 360.504 97.512 368 108.584 368H131.416C142.488 368 152.128 360.504 154.904 349.6C155.528 347.144 157.312 345.088 159.848 344.04C162.24 343.024 164.976 343.208 167.328 344.608C176.856 350.272 188.96 348.752 196.792 340.92L212.936 324.776C220.768 316.944 222.28 304.832 216.528 295.152C215.224 292.968 215.04 290.224 216.12 287.664C217.104 285.296 219.16 283.512 221.792 282.84C232.504 280.12 240 270.488 240 259.416V256H256V240H240V236.584C240 225.512 232.504 215.88 221.592 213.096C219.144 212.472 217.088 210.688 216.04 208.168C215.032 205.768 215.208 203.024 216.608 200.672C222.272 191.16 220.752 179.04 212.928 171.208L196.784 155.064C188.968 147.232 176.848 145.72 167.168 151.464C164.968 152.768 162.216 152.96 159.672 151.888C157.304 150.904 155.52 148.848 154.848 146.216C152.128 135.496 142.488 128 131.416 128H108.584C97.512 128 87.88 135.496 85.096 146.408C84.472 148.864 82.688 150.912 80.168 151.96C77.776 152.96 75.032 152.784 72.672 151.392C72.456 151.264 72.216 151.184 72 151.064V24C72 19.584 75.592 16 80 16H328V72C328 85.232 338.768 96 352 96H408V161.472C401.224 163.888 395.888 169.224 393.472 176H348.688L316.688 208H256V224H323.312L355.312 192H393.472C396.784 201.288 405.584 208 416 208C429.232 208 440 197.232 440 184C440 173.584 433.288 164.784 424 161.472V94.624C424 88.216 421.504 82.184 416.968 77.656L346.344 7.032C341.816 2.504 335.784 0 329.368 0H80C66.768 0 56 10.768 56 24V148.448C51.288 149.304 46.792 151.496 43.216 155.08L27.072 171.224C19.24 179.056 17.728 191.168 23.48 200.848C24.784 203.032 24.968 205.776 23.888 208.336C22.904 210.704 20.848 212.488 18.216 213.16C7.496 215.88 0 225.512 0 236.584V259.416C0 270.488 7.496 280.12 18.408 282.904C20.856 283.528 22.912 285.312 23.96 287.832C24.968 290.232 24.792 292.976 23.392 295.328C17.728 304.84 19.248 316.96 27.072 324.792L43.216 340.936C46.792 344.496 51.28 346.688 56 347.536V472C56 485.232 66.768 496 80 496H400C413.232 496 424 485.232 424 472V334.528C433.288 331.216 440 322.416 440 312C440 298.768 429.232 288 416 288V288ZM416 176C420.408 176 424 179.584 424 184C424 188.416 420.408 192 416 192C411.592 192 408 188.416 408 184C408 179.584 411.592 176 416 176ZM344 27.312L396.688 80H352C347.592 80 344 76.416 344 72V27.312ZM54.528 329.608L38.384 313.464C35.736 310.816 35.224 306.712 37.232 303.336C41.12 296.8 41.672 288.688 38.656 281.496C35.744 274.52 29.64 269.248 22.168 267.344C18.536 266.424 16 263.16 16 259.416V236.584C16 232.84 18.536 229.576 22.344 228.6C29.648 226.752 35.744 221.472 38.72 214.36C41.68 207.304 41.12 199.192 37.144 192.512C35.232 189.288 35.744 185.184 38.392 182.536L54.536 166.392C57.184 163.736 61.28 163.224 64.672 165.24C71.2 169.104 79.312 169.672 86.504 166.664C93.488 163.744 98.76 157.64 100.664 150.16C101.576 146.536 104.832 144 108.584 144H131.416C135.16 144 138.424 146.536 139.392 150.344C141.24 157.64 146.52 163.744 153.64 166.712C160.688 169.688 168.8 169.12 175.496 165.144C178.72 163.24 182.824 163.752 185.472 166.392L201.616 182.536C204.264 185.184 204.776 189.288 202.768 192.664C198.88 199.2 198.328 207.312 201.344 214.504C204.256 221.48 210.36 226.752 217.832 228.656C221.464 229.576 224 232.84 224 236.584V259.416C224 263.16 221.464 266.424 217.656 267.4C210.352 269.248 204.256 274.528 201.28 281.64C198.32 288.696 198.88 296.808 202.856 303.488C204.768 306.712 204.256 310.816 201.608 313.464L185.464 329.608C182.8 332.256 178.712 332.776 175.336 330.768C168.792 326.864 160.672 326.328 153.504 329.336C146.528 332.256 141.248 338.352 139.344 345.84C138.424 349.464 135.16 352 131.416 352H108.584C104.84 352 101.576 349.464 100.608 345.648C98.752 338.352 93.472 332.256 86.368 329.288C83.376 328.032 80.2 327.408 77.016 327.408C72.688 327.408 68.36 328.568 64.504 330.864C61.288 332.768 57.176 332.256 54.528 329.608V329.608ZM416 320C411.592 320 408 316.416 408 312C408 307.584 411.592 304 416 304C420.408 304 424 307.584 424 312C424 316.416 420.408 320 416 320Z" fill="#061237"/>
<path d="M272 240H288V256H272V240Z" fill="#061237"/>
<path d="M200 112V32H88V112H200ZM104 48H184V96H104V48Z" fill="#061237"/>
<path d="M216 32H232V48H216V32Z" fill="#061237"/>
<path d="M248 32H312V48H248V32Z" fill="#061237"/>
<path d="M216 64H312V80H216V64Z" fill="#061237"/>
<path d="M216 96H312V112H216V96Z" fill="#061237"/>
<path d="M240 176C253.232 176 264 165.232 264 152C264 138.768 253.232 128 240 128C226.768 128 216 138.768 216 152C216 165.232 226.768 176 240 176ZM240 144C244.408 144 248 147.584 248 152C248 156.416 244.408 160 240 160C235.592 160 232 156.416 232 152C232 147.584 235.592 144 240 144Z" fill="#061237"/>
<path d="M280 152C280 165.232 290.768 176 304 176C317.232 176 328 165.232 328 152C328 138.768 317.232 128 304 128C290.768 128 280 138.768 280 152ZM312 152C312 156.416 308.408 160 304 160C299.592 160 296 156.416 296 152C296 147.584 299.592 144 304 144C308.408 144 312 147.584 312 152Z" fill="#061237"/>
<path d="M202.344 362.344L120 444.688L101.656 426.344L90.344 437.656L120 467.312L213.656 373.656L202.344 362.344Z" fill="#061237"/>
<path d="M208 444.688L189.656 426.344L178.344 437.656L208 467.312L301.656 373.656L290.344 362.344L208 444.688Z" fill="#061237"/>
<path d="M266.344 437.656L296 467.312L389.656 373.656L378.344 362.344L296 444.688L277.656 426.344L266.344 437.656Z" fill="#061237"/>
</svg>
