<svg width="61" height="61" viewBox="0 0 61 61" fill="none" xmlns="http://www.w3.org/2000/svg">
<rect width="61" height="61" rx="15" fill="#FF9C55" fill-opacity="0.3"/>
<rect x="6" y="6" width="49" height="49" rx="10" fill="#FF9C55"/>
<path d="M27.2445 31.0757C27.3777 31.0188 27.5209 30.9893 27.6657 30.9888C27.8106 30.9882 27.954 31.0168 28.0876 31.0726C28.2212 31.1285 28.3422 31.2106 28.4436 31.314C28.5449 31.4175 28.6245 31.5402 28.6776 31.6749C28.7307 31.8096 28.7562 31.9536 28.7527 32.0984C28.7492 32.2432 28.7167 32.3857 28.6571 32.5177C28.5975 32.6497 28.5121 32.7684 28.4059 32.8668C28.2996 32.9652 28.1748 33.0414 28.0386 33.0907C27.3144 33.376 26.6929 33.8727 26.2549 34.5161C25.8169 35.1595 25.5826 35.9198 25.5827 36.6982V38.5832C25.5827 38.8705 25.6968 39.146 25.9 39.3492C26.1031 39.5524 26.3787 39.6665 26.666 39.6665H35.3327C35.62 39.6665 35.8956 39.5524 36.0987 39.3492C36.3019 39.146 36.416 38.8705 36.416 38.5832V36.7989C36.4161 35.9956 36.1721 35.2112 35.7163 34.5497C35.2605 33.8883 34.6144 33.3809 33.8637 33.095C33.7267 33.0475 33.6006 32.9729 33.493 32.8757C33.3853 32.7786 33.2983 32.6608 33.237 32.5294C33.1757 32.3979 33.1414 32.2555 33.1362 32.1106C33.131 31.9657 33.1549 31.8212 33.2066 31.6857C33.2582 31.5502 33.3365 31.4264 33.4369 31.3218C33.5373 31.2171 33.6576 31.1336 33.7908 31.0764C33.924 31.0191 34.0674 30.9891 34.2124 30.9882C34.3574 30.9874 34.5011 31.0156 34.635 31.0713C35.7959 31.5135 36.7951 32.298 37.5 33.3209C38.205 34.3437 38.5826 35.5567 38.5827 36.7989V38.5832C38.5827 39.4451 38.2403 40.2718 37.6308 40.8813C37.0213 41.4908 36.1946 41.8332 35.3327 41.8332H26.666C25.8041 41.8332 24.9774 41.4908 24.3679 40.8813C23.7584 40.2718 23.416 39.4451 23.416 38.5832V36.6982C23.4162 35.485 23.7814 34.3 24.4642 33.2972C25.147 32.2944 26.1158 31.5204 27.2445 31.0757ZM30.9993 20.1665C32.1486 20.1665 33.2508 20.6231 34.0635 21.4357C34.8761 22.2484 35.3327 23.3506 35.3327 24.4998V26.6665C35.3327 27.8158 34.8761 28.918 34.0635 29.7306C33.2508 30.5433 32.1486 30.9998 30.9993 30.9998C29.8501 30.9998 28.7479 30.5433 27.9352 29.7306C27.1226 28.918 26.666 27.8158 26.666 26.6665V24.4998C26.666 23.3506 27.1226 22.2484 27.9352 21.4357C28.7479 20.6231 29.8501 20.1665 30.9993 20.1665V20.1665ZM30.9993 22.3332C30.4247 22.3332 29.8736 22.5614 29.4673 22.9678C29.061 23.3741 28.8327 23.9252 28.8327 24.4998V26.6665C28.8327 27.2411 29.061 27.7922 29.4673 28.1986C29.8736 28.6049 30.4247 28.8332 30.9993 28.8332C31.574 28.8332 32.1251 28.6049 32.5314 28.1986C32.9377 27.7922 33.166 27.2411 33.166 26.6665V24.4998C33.166 23.9252 32.9377 23.3741 32.5314 22.9678C32.1251 22.5614 31.574 22.3332 30.9993 22.3332Z" fill="white"/>
</svg>
