<svg width="61" height="61" viewBox="0 0 61 61" fill="none" xmlns="http://www.w3.org/2000/svg">
<rect width="61" height="61" rx="15" fill="#55A3FF" fill-opacity="0.3"/>
<rect x="6" y="6" width="49" height="49" rx="10" fill="#55A3FF"/>
<path d="M29.916 33.0833V30.9167C29.0541 30.9167 28.2274 30.5743 27.6179 29.9648C27.0084 29.3553 26.666 28.5286 26.666 27.6667C26.666 26.8047 27.0084 25.9781 27.6179 25.3686C28.2274 24.7591 29.0541 24.4167 29.916 24.4167V23.3333C29.916 23.046 30.0302 22.7705 30.2333 22.5673C30.4365 22.3641 30.712 22.25 30.9993 22.25C31.2867 22.25 31.5622 22.3641 31.7654 22.5673C31.9685 22.7705 32.0827 23.046 32.0827 23.3333V24.4167H32.1065C32.9621 24.4167 33.7827 24.7566 34.3878 25.3616C34.9928 25.9666 35.3327 26.7872 35.3327 27.6428C35.3327 27.9302 35.2185 28.2057 35.0154 28.4089C34.8122 28.612 34.5367 28.7262 34.2493 28.7262C33.962 28.7262 33.6865 28.612 33.4833 28.4089C33.2802 28.2057 33.166 27.9302 33.166 27.6428C33.166 27.3618 33.0544 27.0923 32.8557 26.8937C32.657 26.695 32.3875 26.5833 32.1065 26.5833H32.0827V28.75C32.9446 28.75 33.7713 29.0924 34.3808 29.7019C34.9903 30.3114 35.3327 31.138 35.3327 32C35.3327 32.862 34.9903 33.6886 34.3808 34.2981C33.7713 34.9076 32.9446 35.25 32.0827 35.25V36.3333C32.0827 36.6207 31.9685 36.8962 31.7654 37.0994C31.5622 37.3025 31.2867 37.4167 30.9993 37.4167C30.712 37.4167 30.4365 37.3025 30.2333 37.0994C30.0302 36.8962 29.916 36.6207 29.916 36.3333V35.25H29.8608C29.0135 35.25 28.2009 34.9134 27.6017 34.3143C27.0026 33.7151 26.666 32.9026 26.666 32.0553C26.666 31.7679 26.7802 31.4924 26.9833 31.2892C27.1865 31.0861 27.462 30.9719 27.7493 30.9719C28.0367 30.9719 28.3122 31.0861 28.5154 31.2892C28.7185 31.4924 28.8327 31.7679 28.8327 32.0553C28.833 32.3278 28.9414 32.5892 29.1341 32.7819C29.3269 32.9746 29.5882 33.083 29.8608 33.0833H29.916ZM32.0827 33.0833C32.37 33.0833 32.6456 32.9692 32.8487 32.766C33.0519 32.5629 33.166 32.2873 33.166 32C33.166 31.7127 33.0519 31.4371 32.8487 31.234C32.6456 31.0308 32.37 30.9167 32.0827 30.9167V33.0833ZM29.916 26.5833C29.6287 26.5833 29.3531 26.6975 29.15 26.9006C28.9468 27.1038 28.8327 27.3793 28.8327 27.6667C28.8327 27.954 28.9468 28.2295 29.15 28.4327C29.3531 28.6359 29.6287 28.75 29.916 28.75V26.5833ZM30.9993 40.6667C25.0161 40.6667 20.166 35.8166 20.166 29.8333C20.166 23.8501 25.0161 19 30.9993 19C36.9826 19 41.8327 23.8501 41.8327 29.8333C41.8327 35.8166 36.9826 40.6667 30.9993 40.6667ZM30.9993 38.5C33.2979 38.5 35.5023 37.5869 37.1276 35.9616C38.7529 34.3363 39.666 32.1319 39.666 29.8333C39.666 27.5348 38.7529 25.3304 37.1276 23.7051C35.5023 22.0798 33.2979 21.1667 30.9993 21.1667C28.7008 21.1667 26.4964 22.0798 24.8711 23.7051C23.2458 25.3304 22.3327 27.5348 22.3327 29.8333C22.3327 32.1319 23.2458 34.3363 24.8711 35.9616C26.4964 37.5869 28.7008 38.5 30.9993 38.5Z" fill="white"/>
</svg>
