<svg width="1000" height="1000" viewBox="0 0 1000 1000" fill="none" xmlns="http://www.w3.org/2000/svg">
<path d="M520.4 354C514 354.6 508.5 356.6 503.9 359.9C499.2 363.3 495.4 367.5 492.4 372.6C489.4 377.7 487.2 383.4 486 389.9C484.7 396.4 484.4 402.9 485.1 409.7C485.9 418.4 488.4 424.5 492.6 428C496.7 431.5 501.9 432.9 508.1 432.4C511.9 432 515.3 431.4 518 430.6C520.7 429.8 523.7 428.7 526.9 427.4L532.5 354.4C530.3 354 528.3 353.8 526.4 353.8C524.6 353.7 522.6 353.8 520.4 354ZM69.1996 292.1C208 430.6 346.5 569.3 485.2 707.8C496.9 719.6 502.2 719.5 514.1 707.7L907.3 314.5C916.9 304.9 930.2 296.7 934.9 285.1C939.7 273.2 936.4 257.8 936.4 243.8C936.5 216.3 923 202.9 895.4 202.9H102.5C76.3996 202.9 62.7996 216.8 62.6996 243.1C62.6996 254.1 63.0996 265.1 62.4996 276.1C62.1996 282.8 64.4996 287.4 69.1996 292.1V292.1ZM387.1 372.6C391.7 354.5 399.8 337.6 411.3 322.2C422.9 306.7 438.3 293.6 457.4 282.7C476.5 271.8 499.8 265.1 527.2 262.4C541.9 261 555.9 261.7 569.3 264.3C582.8 267 594.7 271.9 605.2 279.1C615.7 286.3 624.4 295.7 631.3 307.4C638.1 319.2 642.4 333.3 644 349.9C645.2 361.9 644.3 373.9 641.5 386C638.7 398.1 634.2 409.1 627.9 419C621.7 428.9 613.8 437.3 604.1 444.1C594.5 450.9 583.6 454.9 571.3 456.3C557.2 457.7 546.2 455 538.1 448.4C532.6 451.9 526.8 455 520.6 457.8C514.4 460.6 506.5 462.5 496.8 463.4C490.7 464 484.7 463.6 479.2 462.4C473.6 461.1 468.7 458.6 464.2 455.1C459.8 451.5 456.1 446.9 453.1 441.1C450.1 435.3 448.2 428.3 447.4 420C446.1 406.9 447.2 394.6 450.5 383.3C453.8 372 458.8 362 465.6 353.3C472.3 344.7 480.5 337.7 490 332.3C499.5 326.9 509.9 323.6 521.3 322.5C530 321.7 538.6 321.5 547.1 322C555.6 322.4 563.7 323.6 571.3 325.6L562.2 425.6C564.3 426.9 567.5 427.4 572 427C579.2 426.3 585.3 423.6 590.5 418.8C595.7 414 599.8 408.1 602.9 400.9C606.1 393.8 608.2 386.1 609.3 377.6C610.5 369.2 610.6 361.1 609.8 353.1C607.7 330.9 599.3 314.6 584.7 304.1C570 293.6 550.5 289.6 525.9 291.9C507 293.7 490.5 298.6 476.3 306.4C462.1 314.3 450.5 324.2 441.5 336.1C432.5 348 425.9 361.2 421.9 376C418 390.7 416.7 405.6 418.1 420.9C419.4 434.8 422.6 446.5 427.8 455.9C432.9 465.4 439.3 472.9 447 478.4C454.8 484 463.5 487.8 473.4 489.8C483.2 491.7 493.5 492.2 504.4 491.2C514.4 490.2 523.6 488.7 532 486.7C540.4 484.6 547.9 481.9 554.6 478.5C556.7 482.6 558.8 486.8 560.8 491.2C562.7 495.6 564.6 499.9 566.1 504.3C562.8 506.4 558.8 508.4 554.1 510.2C549.4 512.1 544.3 513.8 538.8 515.2C533.3 516.7 527.4 517.9 521.2 519C515 520.1 508.7 520.9 502.6 521.5C487.7 522.9 473.4 522.1 459.7 519.1C445.9 516.1 433.6 510.7 422.7 502.9C411.9 495.1 402.9 484.8 395.8 472.1C388.7 459.3 384.3 443.7 382.5 425.4C381 408.5 382.5 390.8 387.1 372.6ZM738.9 559.1C736.6 556.8 734.3 554.7 730.3 550.8C728 553.8 726.2 557 723.7 559.4C663.8 619.4 603.9 679.3 543.9 739.3C515.8 767.4 483.4 767.5 455.5 739.6C395.6 679.7 335.6 619.7 275.7 559.7C273.2 557.2 271.3 554.1 268.8 550.8C265.9 553.4 264.9 554.2 264 555.1C198.6 620.5 133.2 686 67.5996 751.3C61.6996 757.2 62.0996 763.3 63.7996 769.9C68.3996 787.7 81.6996 796.8 102.4 796.8H896.4C899 796.8 901.6 797 904.2 796.7C916.9 795.2 927.1 789.4 932.5 777.5C938 765.4 939.3 758.6 928 747.4C864.5 685.2 801.8 622 738.9 559.1ZM63.3996 691.7L233.4 521.7C176.7 464.5 119.9 407.3 63.3996 350.3V691.7V691.7ZM935.7 690.6V350.1L765.5 520.3L935.7 690.6Z" fill="#6C54EA"/>
</svg>
