<svg width="61" height="61" viewBox="0 0 61 61" fill="none" xmlns="http://www.w3.org/2000/svg">
<rect width="61" height="61" rx="15" fill="#00BE1F" fill-opacity="0.3"/>
<rect x="6" y="6" width="49" height="49" rx="10" fill="#00BE1F"/>
<path d="M23.9945 30.9925C24.1277 30.9357 24.2709 30.9061 24.4157 30.9056C24.5606 30.9051 24.704 30.9336 24.8376 30.9895C24.9712 31.0453 25.0922 31.1274 25.1936 31.2308C25.2949 31.3343 25.3745 31.457 25.4276 31.5917C25.4807 31.7265 25.5062 31.8705 25.5027 32.0152C25.4992 32.16 25.4667 32.3026 25.4071 32.4346C25.3475 32.5666 25.2621 32.6853 25.1559 32.7837C25.0496 32.8821 24.9248 32.9582 24.7886 33.0075C24.0644 33.2928 23.4429 33.7895 23.0049 34.4329C22.5669 35.0763 22.3326 35.8367 22.3327 36.615V38.5C22.3327 38.7873 22.4468 39.0629 22.65 39.266C22.8531 39.4692 23.1287 39.5833 23.416 39.5833H32.0827C32.37 39.5833 32.6456 39.4692 32.8487 39.266C33.0519 39.0629 33.166 38.7873 33.166 38.5V36.7158C33.1661 35.9124 32.9221 35.128 32.4663 34.4666C32.0105 33.8051 31.3644 33.2978 30.6137 33.0118C30.4767 32.9643 30.3506 32.8897 30.243 32.7926C30.1353 32.6954 30.0483 32.5776 29.987 32.4462C29.9257 32.3148 29.8914 32.1724 29.8862 32.0274C29.881 31.8825 29.9049 31.738 29.9566 31.6025C30.0082 31.467 30.0865 31.3433 30.1869 31.2386C30.2873 31.1339 30.4076 31.0505 30.5408 30.9932C30.674 30.9359 30.8174 30.9059 30.9624 30.9051C31.1074 30.9042 31.2511 30.9325 31.385 30.9882C32.5459 31.4304 33.5451 32.2149 34.25 33.2377C34.955 34.2606 35.3326 35.4735 35.3327 36.7158V38.5C35.3327 39.362 34.9903 40.1886 34.3808 40.7981C33.7713 41.4076 32.9446 41.75 32.0827 41.75H23.416C22.5541 41.75 21.7274 41.4076 21.1179 40.7981C20.5084 40.1886 20.166 39.362 20.166 38.5V36.615C20.1662 35.4018 20.5314 34.2168 21.2142 33.214C21.897 32.2113 22.8658 31.4372 23.9945 30.9925ZM27.7493 20.0833C28.8986 20.0833 30.0008 20.5399 30.8135 21.3525C31.6261 22.1652 32.0827 23.2674 32.0827 24.4167V26.5833C32.0827 27.7326 31.6261 28.8348 30.8135 29.6475C30.0008 30.4601 28.8986 30.9167 27.7493 30.9167C26.6001 30.9167 25.4979 30.4601 24.6852 29.6475C23.8726 28.8348 23.416 27.7326 23.416 26.5833V24.4167C23.416 23.2674 23.8726 22.1652 24.6852 21.3525C25.4979 20.5399 26.6001 20.0833 27.7493 20.0833ZM27.7493 22.25C27.1747 22.25 26.6236 22.4783 26.2173 22.8846C25.811 23.2909 25.5827 23.842 25.5827 24.4167V26.5833C25.5827 27.158 25.811 27.7091 26.2173 28.1154C26.6236 28.5217 27.1747 28.75 27.7493 28.75C28.324 28.75 28.8751 28.5217 29.2814 28.1154C29.6877 27.7091 29.916 27.158 29.916 26.5833V24.4167C29.916 23.842 29.6877 23.2909 29.2814 22.8846C28.8751 22.4783 28.324 22.25 27.7493 22.25ZM37.4993 40.6667C37.212 40.6667 36.9365 40.5525 36.7333 40.3494C36.5302 40.1462 36.416 39.8707 36.416 39.5833C36.416 39.296 36.5302 39.0205 36.7333 38.8173C36.9365 38.6141 37.212 38.5 37.4993 38.5H38.5827C38.87 38.5 39.1456 38.3859 39.3487 38.1827C39.5519 37.9795 39.666 37.704 39.666 37.4167V35.4255C39.666 34.6554 39.4236 33.9049 38.9733 33.2802C38.523 32.6555 37.8876 32.1883 37.157 31.9448C37.022 31.8998 36.8972 31.8287 36.7896 31.7355C36.6821 31.6423 36.594 31.5288 36.5303 31.4016C36.4666 31.2743 36.4287 31.1358 36.4185 30.9938C36.4084 30.8519 36.4263 30.7093 36.4713 30.5743C36.5162 30.4393 36.5873 30.3145 36.6805 30.207C36.7737 30.0994 36.8872 30.0113 37.0145 29.9476C37.1417 29.884 37.2803 29.846 37.4222 29.8358C37.5641 29.8257 37.7067 29.8436 37.8417 29.8886C39.0039 30.2758 40.0147 31.019 40.731 32.0128C41.4473 33.0065 41.8327 34.2005 41.8327 35.4255V37.4167C41.8327 38.2786 41.4903 39.1053 40.8808 39.7148C40.2713 40.3243 39.4446 40.6667 38.5827 40.6667H37.4993ZM34.2493 21.1667C33.962 21.1667 33.6865 21.0525 33.4833 20.8494C33.2802 20.6462 33.166 20.3707 33.166 20.0833C33.166 19.796 33.2802 19.5205 33.4833 19.3173C33.6865 19.1141 33.962 19 34.2493 19C35.3986 19 36.5008 19.4565 37.3135 20.2692C38.1261 21.0819 38.5827 22.1841 38.5827 23.3333V25.5C38.5827 26.6493 38.1261 27.7515 37.3135 28.5641C36.5008 29.3768 35.3986 29.8333 34.2493 29.8333C33.962 29.8333 33.6865 29.7192 33.4833 29.516C33.2802 29.3129 33.166 29.0373 33.166 28.75C33.166 28.4627 33.2802 28.1871 33.4833 27.984C33.6865 27.7808 33.962 27.6667 34.2493 27.6667C34.824 27.6667 35.3751 27.4384 35.7814 27.0321C36.1877 26.6257 36.416 26.0746 36.416 25.5V23.3333C36.416 22.7587 36.1877 22.2076 35.7814 21.8013C35.3751 21.3949 34.824 21.1667 34.2493 21.1667Z" fill="white"/>
</svg>
