<svg width="1000" height="1000" viewBox="0 0 1000 1000" fill="none" xmlns="http://www.w3.org/2000/svg">
<path d="M901 563.3C904.3 542.6 906 521.5 906 499.9C906 275.7 724.2 93.9004 500 93.9004C478.5 93.9004 457.3 95.7004 436.6 98.9004C399.2 75.8004 355.1 62.4004 307.8 62.4004C172.3 62.4004 62.5 172.2 62.5 307.7C62.5 355 75.9 399.1 99 436.5C95.8 457.2 94 478.3 94 499.8C94 724 275.8 905.7 499.9 905.7C521.4 905.7 542.6 904 563.3 900.8C600.7 923.9 644.8 937.3 692.1 937.3C827.6 937.3 937.4 827.5 937.4 691.9C937.5 644.9 924.1 600.8 901 563.3ZM692.7 684.6C675.5 709.3 650.3 728.6 617.3 742.5C584.3 756.4 545.2 763.3 500.1 763.3C446.1 763.3 401.3 753.9 366 734.8C341 721.1 320.6 702.8 305 679.9C289.3 657 281.4 634.6 281.4 612.7C281.4 599.8 286.3 588.6 295.9 579.5C305.6 570.3 318 565.7 332.7 565.7C344.7 565.7 355.1 569.3 363.5 576.5C371.9 583.7 378.9 594.1 384.6 607.9C391.5 623.9 398.9 637.2 406.9 647.9C414.8 658.4 425.9 667.2 440.3 674.1C454.5 681 473.5 684.4 497.2 684.4C529.6 684.4 555.9 677.4 575.9 663.5C596.1 649.5 605.8 632.5 605.8 612C605.8 595.6 600.6 582.6 589.9 572.5C579.1 562.2 565.1 554.4 547.8 549C530.4 543.5 507.1 537.6 477.8 531.5C438.5 522.9 405.7 512.9 379.1 501.5C352.5 490 331.2 474.3 315.5 454.4C299.7 434.3 291.9 409.4 291.9 379.9C291.9 351.7 300.2 326.6 316.8 304.6C333.4 282.6 357.4 265.8 388.7 254.1C419.9 242.4 456.6 236.5 498.7 236.5C532.3 236.5 561.5 240.4 586.1 248.1C610.7 255.9 631.2 266.2 647.5 279.1C663.8 292 675.7 305.6 683.3 319.9C690.9 334.2 694.7 348.2 694.7 361.8C694.7 374.5 689.8 386 680.2 396.1C670.6 406.2 658.4 411.3 644.1 411.3C631.2 411.3 621.1 408.3 614.1 402C607.3 395.9 600.1 386.2 592.3 372.7C582.5 353.8 570.7 339.1 557.1 328.6C543.8 318.3 521.8 312.9 491.3 313C463 313 440.4 318.8 423.3 330.1C406.1 341.6 397.9 354.9 397.9 370.5C397.9 380.3 400.7 388.5 406.4 395.6C412.1 402.7 420.1 408.9 430.4 414.1C440.7 419.4 451.1 423.5 461.6 426.4C472.2 429.4 489.9 433.8 514.4 439.5C545.1 446.1 573 453.5 598.1 461.6C623.1 469.7 644.4 479.5 662.1 491.1C679.9 502.7 693.8 517.5 703.7 535.4C713.7 553.3 718.7 575.2 718.7 600.9C718.6 632 709.9 659.9 692.7 684.6Z" fill="#6C54EA"/>
</svg>
