<svg width="1000" height="1000" viewBox="0 0 1000 1000" fill="none" xmlns="http://www.w3.org/2000/svg">
<path d="M500 62.5C258.4 62.5 62.5 258.4 62.5 500C62.5 741.6 258.4 937.5 500 937.5C741.6 937.5 937.5 741.6 937.5 500C937.5 258.4 741.6 62.5 500 62.5ZM634.7 708.1C634.7 708.1 623.8 735.4 593.7 722.3L482.2 636.8L413.7 583.2L414 580.7C414 580.7 614 400.9 622.2 393.3L627.7 384C628.2 374.7 612.9 384 612.9 384L347.9 552.3L237.5 515.1C237.5 515.1 220.5 509.1 218.9 496C217.3 482.9 238 475.8 238 475.8L676.8 303.7C676.8 303.7 712.9 287.9 712.9 314.1L634.7 708.1Z" fill="#6C54EA"/>
</svg>
