<svg width="1000" height="1000" viewBox="0 0 1000 1000" fill="none" xmlns="http://www.w3.org/2000/svg">
<path d="M1000 487.1C1000 756.1 780.2 974.2 509.1 974.2C423 974.2 342.2 952.2 271.8 913.6L0 1000L88.6 738.6C43.9 665.2 18.2 579.1 18.2 487.1C18.2 218.1 238 0 509.1 0C780.2 0 1000 218.1 1000 487.1ZM509.1 77.5C281.5 77.5 96.4 261.2 96.4 487.1C96.4 576.7 125.6 659.7 175 727.2L123.4 879.3L282 828.9C347.2 871.7 425.3 896.7 509.1 896.7C736.7 896.7 921.8 713 921.8 487.2C921.8 261.4 736.7 77.5 509.1 77.5ZM757 599.3C754 594.3 745.9 591.3 733.9 585.4C721.9 579.4 662.7 550.5 651.7 546.6C640.6 542.6 632.6 540.6 624.6 552.6C616.6 564.6 593.5 591.4 586.5 599.4C579.5 607.4 572.5 608.4 560.4 602.4C548.4 596.4 509.6 583.8 463.6 543.1C427.8 511.4 403.7 472.4 396.7 460.4C389.7 448.4 396 441.9 402 436C407.4 430.6 414 422.1 420.1 415.1C426.2 408.1 428.1 403.1 432.1 395.2C436.1 387.3 434.1 380.3 431.1 374.3C428.1 368.3 404 309.6 394 285.7C384 261.8 374 265.8 366.9 265.8C359.9 265.8 351.9 264.8 343.8 264.8C335.8 264.8 322.7 267.8 311.7 279.7C300.7 291.6 269.6 320.6 269.6 379.3C269.6 438.1 312.7 494.8 318.7 502.8C324.7 510.8 401.9 635.2 524.3 683C646.7 730.8 646.7 714.8 668.7 712.9C690.7 710.9 739.9 684 749.9 656.1C759.9 628.2 759.9 604.3 757 599.3Z" fill="#6C54EA"/>
</svg>
